<svg xmlns="http://www.w3.org/2000/svg" width="295" height="295" viewBox="0 0 295 295">
  <g id="Group_2" data-name="Group 2" transform="translate(-3943 790)">
    <g id="Group_3" data-name="Group 3">
      <circle id="Ellipse_1" data-name="Ellipse 1" cx="147.5" cy="147.5" r="147.5" transform="translate(3943 -790)" fill="#fff" opacity="0.84"/>
      <g id="Group_1" data-name="Group 1" transform="translate(-62.358 -50.355)">
        <path id="Path_5" data-name="Path 5" d="M356.707,15.413a24.088,24.088,0,0,1,0,34.07L344.536,61.654,302.383,19.5,314.554,7.33a24.1,24.1,0,0,1,34.078,0Zm0,0" transform="translate(3882.779 -685.917)" fill="#d83846"/>
        <path id="Path_6" data-name="Path 6" d="M294.636,70.356,184.381,180.617h-.005l-42.153-42.153L252.483,28.2Zm0,0" transform="translate(3932.679 -694.619)" fill="#d9418e"/>
        <path id="Path_7" data-name="Path 7" d="M134.735,188.363l42.153,42.153-.393.393-58.3,16.151,16.151-58.3Zm0,0" transform="translate(3940.167 -744.519)" fill="#d948cb"/>
      </g>
    </g>
  </g>
</svg>
